<mxfile host="app.diagrams.net" modified="2023-04-14T19:19:27.008Z" agent="Mozilla/5.0 (Windows NT 10.0; Win64; x64) AppleWebKit/537.36 (KHTML, like Gecko) Chrome/112.0.0.0 Safari/537.36" etag="C1IPLfDyh6DuVb56QSdx" version="21.1.8" type="github">
  <diagram name="Page-1" id="rwvauSxjsksC3MHOpXXF">
    <mxGraphModel dx="3749" dy="1097" grid="1" gridSize="10" guides="1" tooltips="1" connect="1" arrows="1" fold="1" page="1" pageScale="1" pageWidth="850" pageHeight="1100" math="0" shadow="0">
      <root>
        <mxCell id="0" />
        <mxCell id="1" parent="0" />
        <mxCell id="S01I_lZ_yXAPCIhEHlb7-40" value="LIbrary" style="swimlane;fontStyle=1;align=center;verticalAlign=top;childLayout=stackLayout;horizontal=1;startSize=26;horizontalStack=0;resizeParent=1;resizeParentMax=0;resizeLast=0;collapsible=1;marginBottom=0;whiteSpace=wrap;html=1;" parent="1" vertex="1">
          <mxGeometry x="-1050" y="20" width="120" height="300" as="geometry">
            <mxRectangle x="-1300" y="300" width="80" height="30" as="alternateBounds" />
          </mxGeometry>
        </mxCell>
        <mxCell id="S01I_lZ_yXAPCIhEHlb7-41" value="&lt;b&gt;FIELDS:&lt;br&gt;&lt;/b&gt;+ Name&lt;br&gt;+ Address&lt;br&gt;+ BookList&lt;br&gt;+ ClientList&lt;br&gt;+ EmployeeList" style="text;strokeColor=none;fillColor=none;align=left;verticalAlign=top;spacingLeft=4;spacingRight=4;overflow=hidden;rotatable=0;points=[[0,0.5],[1,0.5]];portConstraint=eastwest;whiteSpace=wrap;html=1;" parent="S01I_lZ_yXAPCIhEHlb7-40" vertex="1">
          <mxGeometry y="26" width="120" height="94" as="geometry" />
        </mxCell>
        <mxCell id="S01I_lZ_yXAPCIhEHlb7-42" value="" style="line;strokeWidth=1;fillColor=none;align=left;verticalAlign=middle;spacingTop=-1;spacingLeft=3;spacingRight=3;rotatable=0;labelPosition=right;points=[];portConstraint=eastwest;strokeColor=inherit;" parent="S01I_lZ_yXAPCIhEHlb7-40" vertex="1">
          <mxGeometry y="120" width="120" height="8" as="geometry" />
        </mxCell>
        <mxCell id="S01I_lZ_yXAPCIhEHlb7-43" value="&lt;b&gt;METHODS:&lt;br&gt;&lt;/b&gt;+ addName()&lt;br&gt;+ modifyName()&lt;br&gt;+ addAdress()&lt;br&gt;+ modifyAddress()&lt;br&gt;+ addBook()&lt;br style=&quot;border-color: var(--border-color);&quot;&gt;+ removeBook()&lt;br&gt;+ addClient()&lt;br style=&quot;border-color: var(--border-color);&quot;&gt;+ removeClient()&lt;br&gt;+ addEmployee()&lt;br&gt;+ removeEmployee()" style="text;strokeColor=none;fillColor=none;align=left;verticalAlign=top;spacingLeft=4;spacingRight=4;overflow=hidden;rotatable=0;points=[[0,0.5],[1,0.5]];portConstraint=eastwest;whiteSpace=wrap;html=1;" parent="S01I_lZ_yXAPCIhEHlb7-40" vertex="1">
          <mxGeometry y="128" width="120" height="172" as="geometry" />
        </mxCell>
        <mxCell id="S01I_lZ_yXAPCIhEHlb7-48" value="Book" style="swimlane;fontStyle=1;align=center;verticalAlign=top;childLayout=stackLayout;horizontal=1;startSize=26;horizontalStack=0;resizeParent=1;resizeParentMax=0;resizeLast=0;collapsible=1;marginBottom=0;whiteSpace=wrap;html=1;" parent="1" vertex="1">
          <mxGeometry x="-1310" y="320" width="100" height="310" as="geometry">
            <mxRectangle x="-1300" y="300" width="80" height="30" as="alternateBounds" />
          </mxGeometry>
        </mxCell>
        <mxCell id="S01I_lZ_yXAPCIhEHlb7-49" value="&lt;b&gt;FIELDS:&lt;br&gt;&lt;/b&gt;+ Title&lt;br&gt;+ Author&lt;br&gt;+ Year&lt;br&gt;+ Publisher&lt;br&gt;+ Genre&lt;br&gt;+ Availability&lt;br&gt;+ Borrower" style="text;strokeColor=none;fillColor=none;align=left;verticalAlign=top;spacingLeft=4;spacingRight=4;overflow=hidden;rotatable=0;points=[[0,0.5],[1,0.5]];portConstraint=eastwest;whiteSpace=wrap;html=1;" parent="S01I_lZ_yXAPCIhEHlb7-48" vertex="1">
          <mxGeometry y="26" width="100" height="124" as="geometry" />
        </mxCell>
        <mxCell id="S01I_lZ_yXAPCIhEHlb7-50" value="" style="line;strokeWidth=1;fillColor=none;align=left;verticalAlign=middle;spacingTop=-1;spacingLeft=3;spacingRight=3;rotatable=0;labelPosition=right;points=[];portConstraint=eastwest;strokeColor=inherit;" parent="S01I_lZ_yXAPCIhEHlb7-48" vertex="1">
          <mxGeometry y="150" width="100" height="8" as="geometry" />
        </mxCell>
        <mxCell id="S01I_lZ_yXAPCIhEHlb7-51" value="&lt;b&gt;METHODS:&lt;/b&gt;&lt;br&gt;+&amp;nbsp;getTitle()&lt;br&gt;+&amp;nbsp;getAuthor()&lt;br&gt;+&amp;nbsp;getYear()&lt;br&gt;+&amp;nbsp;getPublisher()&lt;br&gt;+&amp;nbsp;getGenre()&lt;br&gt;+ getAvailability()&lt;br&gt;+ setAvailability()&lt;br&gt;+ getBorrower()&lt;br&gt;+ setBorrower()" style="text;strokeColor=none;fillColor=none;align=left;verticalAlign=top;spacingLeft=4;spacingRight=4;overflow=hidden;rotatable=0;points=[[0,0.5],[1,0.5]];portConstraint=eastwest;whiteSpace=wrap;html=1;" parent="S01I_lZ_yXAPCIhEHlb7-48" vertex="1">
          <mxGeometry y="158" width="100" height="152" as="geometry" />
        </mxCell>
        <mxCell id="S01I_lZ_yXAPCIhEHlb7-52" value="Person" style="swimlane;fontStyle=1;align=center;verticalAlign=top;childLayout=stackLayout;horizontal=1;startSize=26;horizontalStack=0;resizeParent=1;resizeParentMax=0;resizeLast=0;collapsible=1;marginBottom=0;whiteSpace=wrap;html=1;" parent="1" vertex="1">
          <mxGeometry x="-790" y="350" width="80" height="150" as="geometry">
            <mxRectangle x="-1300" y="300" width="80" height="30" as="alternateBounds" />
          </mxGeometry>
        </mxCell>
        <mxCell id="S01I_lZ_yXAPCIhEHlb7-53" value="&lt;b&gt;FIELDS:&lt;br&gt;&lt;/b&gt;+ Id&lt;br&gt;+ Name" style="text;strokeColor=none;fillColor=none;align=left;verticalAlign=top;spacingLeft=4;spacingRight=4;overflow=hidden;rotatable=0;points=[[0,0.5],[1,0.5]];portConstraint=eastwest;whiteSpace=wrap;html=1;" parent="S01I_lZ_yXAPCIhEHlb7-52" vertex="1">
          <mxGeometry y="26" width="80" height="54" as="geometry" />
        </mxCell>
        <mxCell id="S01I_lZ_yXAPCIhEHlb7-54" value="" style="line;strokeWidth=1;fillColor=none;align=left;verticalAlign=middle;spacingTop=-1;spacingLeft=3;spacingRight=3;rotatable=0;labelPosition=right;points=[];portConstraint=eastwest;strokeColor=inherit;" parent="S01I_lZ_yXAPCIhEHlb7-52" vertex="1">
          <mxGeometry y="80" width="80" height="8" as="geometry" />
        </mxCell>
        <mxCell id="S01I_lZ_yXAPCIhEHlb7-55" value="&lt;b&gt;METHODS:&lt;/b&gt;&lt;br&gt;+&amp;nbsp;getId()&lt;br&gt;+&amp;nbsp;getName()" style="text;strokeColor=none;fillColor=none;align=left;verticalAlign=top;spacingLeft=4;spacingRight=4;overflow=hidden;rotatable=0;points=[[0,0.5],[1,0.5]];portConstraint=eastwest;whiteSpace=wrap;html=1;" parent="S01I_lZ_yXAPCIhEHlb7-52" vertex="1">
          <mxGeometry y="88" width="80" height="62" as="geometry" />
        </mxCell>
        <mxCell id="S01I_lZ_yXAPCIhEHlb7-56" value="Client" style="swimlane;fontStyle=1;align=center;verticalAlign=top;childLayout=stackLayout;horizontal=1;startSize=26;horizontalStack=0;resizeParent=1;resizeParentMax=0;resizeLast=0;collapsible=1;marginBottom=0;whiteSpace=wrap;html=1;" parent="1" vertex="1">
          <mxGeometry x="-950" y="510" width="130" height="200" as="geometry">
            <mxRectangle x="-1300" y="300" width="80" height="30" as="alternateBounds" />
          </mxGeometry>
        </mxCell>
        <mxCell id="S01I_lZ_yXAPCIhEHlb7-57" value="&lt;b&gt;FIELDS:&lt;br&gt;&lt;/b&gt;+ Id&lt;br&gt;+ Name&lt;br&gt;+ Phone&lt;br&gt;+ LoanedBooksLIst" style="text;strokeColor=none;fillColor=none;align=left;verticalAlign=top;spacingLeft=4;spacingRight=4;overflow=hidden;rotatable=0;points=[[0,0.5],[1,0.5]];portConstraint=eastwest;whiteSpace=wrap;html=1;" parent="S01I_lZ_yXAPCIhEHlb7-56" vertex="1">
          <mxGeometry y="26" width="130" height="84" as="geometry" />
        </mxCell>
        <mxCell id="S01I_lZ_yXAPCIhEHlb7-58" value="" style="line;strokeWidth=1;fillColor=none;align=left;verticalAlign=middle;spacingTop=-1;spacingLeft=3;spacingRight=3;rotatable=0;labelPosition=right;points=[];portConstraint=eastwest;strokeColor=inherit;" parent="S01I_lZ_yXAPCIhEHlb7-56" vertex="1">
          <mxGeometry y="110" width="130" height="8" as="geometry" />
        </mxCell>
        <mxCell id="S01I_lZ_yXAPCIhEHlb7-59" value="&lt;b&gt;METHODS:&lt;/b&gt;&lt;br&gt;+&amp;nbsp;getPhone()&lt;br&gt;+&amp;nbsp;getLoanedBookList()&lt;br&gt;+ loanBook()&lt;br&gt;+ returnBook()" style="text;strokeColor=none;fillColor=none;align=left;verticalAlign=top;spacingLeft=4;spacingRight=4;overflow=hidden;rotatable=0;points=[[0,0.5],[1,0.5]];portConstraint=eastwest;whiteSpace=wrap;html=1;" parent="S01I_lZ_yXAPCIhEHlb7-56" vertex="1">
          <mxGeometry y="118" width="130" height="82" as="geometry" />
        </mxCell>
        <mxCell id="S01I_lZ_yXAPCIhEHlb7-60" value="Employee" style="swimlane;fontStyle=1;align=center;verticalAlign=top;childLayout=stackLayout;horizontal=1;startSize=26;horizontalStack=0;resizeParent=1;resizeParentMax=0;resizeLast=0;collapsible=1;marginBottom=0;whiteSpace=wrap;html=1;" parent="1" vertex="1">
          <mxGeometry x="-600" y="500" width="90" height="190" as="geometry">
            <mxRectangle x="-1300" y="300" width="80" height="30" as="alternateBounds" />
          </mxGeometry>
        </mxCell>
        <mxCell id="S01I_lZ_yXAPCIhEHlb7-61" value="&lt;b&gt;FIELDS:&lt;br&gt;&lt;/b&gt;+ Id&lt;br&gt;+ Name&lt;br&gt;+ Position&lt;br&gt;+ Salary" style="text;strokeColor=none;fillColor=none;align=left;verticalAlign=top;spacingLeft=4;spacingRight=4;overflow=hidden;rotatable=0;points=[[0,0.5],[1,0.5]];portConstraint=eastwest;whiteSpace=wrap;html=1;" parent="S01I_lZ_yXAPCIhEHlb7-60" vertex="1">
          <mxGeometry y="26" width="90" height="84" as="geometry" />
        </mxCell>
        <mxCell id="S01I_lZ_yXAPCIhEHlb7-62" value="" style="line;strokeWidth=1;fillColor=none;align=left;verticalAlign=middle;spacingTop=-1;spacingLeft=3;spacingRight=3;rotatable=0;labelPosition=right;points=[];portConstraint=eastwest;strokeColor=inherit;" parent="S01I_lZ_yXAPCIhEHlb7-60" vertex="1">
          <mxGeometry y="110" width="90" height="8" as="geometry" />
        </mxCell>
        <mxCell id="S01I_lZ_yXAPCIhEHlb7-63" value="&lt;b&gt;METHODS:&lt;/b&gt;&lt;br&gt;+ getName&lt;br&gt;+&amp;nbsp;getPosition()&lt;br&gt;+&amp;nbsp;getSalary()" style="text;strokeColor=none;fillColor=none;align=left;verticalAlign=top;spacingLeft=4;spacingRight=4;overflow=hidden;rotatable=0;points=[[0,0.5],[1,0.5]];portConstraint=eastwest;whiteSpace=wrap;html=1;" parent="S01I_lZ_yXAPCIhEHlb7-60" vertex="1">
          <mxGeometry y="118" width="90" height="72" as="geometry" />
        </mxCell>
        <mxCell id="S01I_lZ_yXAPCIhEHlb7-64" value="LIbrarian" style="swimlane;fontStyle=1;align=center;verticalAlign=top;childLayout=stackLayout;horizontal=1;startSize=26;horizontalStack=0;resizeParent=1;resizeParentMax=0;resizeLast=0;collapsible=1;marginBottom=0;whiteSpace=wrap;html=1;" parent="1" vertex="1">
          <mxGeometry x="-740" y="690" width="90" height="190" as="geometry">
            <mxRectangle x="-1300" y="300" width="80" height="30" as="alternateBounds" />
          </mxGeometry>
        </mxCell>
        <mxCell id="S01I_lZ_yXAPCIhEHlb7-65" value="&lt;b&gt;FIELDS:&lt;br&gt;&lt;/b&gt;+ Id&lt;br&gt;+ Name&lt;br&gt;+ Salary&lt;br&gt;+ Section" style="text;strokeColor=none;fillColor=none;align=left;verticalAlign=top;spacingLeft=4;spacingRight=4;overflow=hidden;rotatable=0;points=[[0,0.5],[1,0.5]];portConstraint=eastwest;whiteSpace=wrap;html=1;" parent="S01I_lZ_yXAPCIhEHlb7-64" vertex="1">
          <mxGeometry y="26" width="90" height="84" as="geometry" />
        </mxCell>
        <mxCell id="S01I_lZ_yXAPCIhEHlb7-66" value="" style="line;strokeWidth=1;fillColor=none;align=left;verticalAlign=middle;spacingTop=-1;spacingLeft=3;spacingRight=3;rotatable=0;labelPosition=right;points=[];portConstraint=eastwest;strokeColor=inherit;" parent="S01I_lZ_yXAPCIhEHlb7-64" vertex="1">
          <mxGeometry y="110" width="90" height="8" as="geometry" />
        </mxCell>
        <mxCell id="S01I_lZ_yXAPCIhEHlb7-67" value="&lt;b&gt;METHODS:&lt;/b&gt;&lt;br&gt;+ getName()&lt;br&gt;+ getSalary()&lt;br&gt;+&amp;nbsp;getSection()&lt;br&gt;" style="text;strokeColor=none;fillColor=none;align=left;verticalAlign=top;spacingLeft=4;spacingRight=4;overflow=hidden;rotatable=0;points=[[0,0.5],[1,0.5]];portConstraint=eastwest;whiteSpace=wrap;html=1;" parent="S01I_lZ_yXAPCIhEHlb7-64" vertex="1">
          <mxGeometry y="118" width="90" height="72" as="geometry" />
        </mxCell>
        <mxCell id="P77QXIMF4UAiQioeEThP-1" value="Manager" style="swimlane;fontStyle=1;align=center;verticalAlign=top;childLayout=stackLayout;horizontal=1;startSize=26;horizontalStack=0;resizeParent=1;resizeParentMax=0;resizeLast=0;collapsible=1;marginBottom=0;whiteSpace=wrap;html=1;" vertex="1" parent="1">
          <mxGeometry x="-460" y="680" width="80" height="190" as="geometry">
            <mxRectangle x="-1300" y="300" width="80" height="30" as="alternateBounds" />
          </mxGeometry>
        </mxCell>
        <mxCell id="P77QXIMF4UAiQioeEThP-2" value="&lt;b&gt;FIELDS:&lt;br&gt;&lt;/b&gt;+ Id&lt;br&gt;+ Name&lt;br&gt;+ Salary" style="text;strokeColor=none;fillColor=none;align=left;verticalAlign=top;spacingLeft=4;spacingRight=4;overflow=hidden;rotatable=0;points=[[0,0.5],[1,0.5]];portConstraint=eastwest;whiteSpace=wrap;html=1;" vertex="1" parent="P77QXIMF4UAiQioeEThP-1">
          <mxGeometry y="26" width="80" height="94" as="geometry" />
        </mxCell>
        <mxCell id="P77QXIMF4UAiQioeEThP-3" value="" style="line;strokeWidth=1;fillColor=none;align=left;verticalAlign=middle;spacingTop=-1;spacingLeft=3;spacingRight=3;rotatable=0;labelPosition=right;points=[];portConstraint=eastwest;strokeColor=inherit;" vertex="1" parent="P77QXIMF4UAiQioeEThP-1">
          <mxGeometry y="120" width="80" height="8" as="geometry" />
        </mxCell>
        <mxCell id="P77QXIMF4UAiQioeEThP-4" value="&lt;b&gt;METHODS:&lt;/b&gt;&lt;br&gt;+&amp;nbsp;getName()&lt;br&gt;+ getSalary()" style="text;strokeColor=none;fillColor=none;align=left;verticalAlign=top;spacingLeft=4;spacingRight=4;overflow=hidden;rotatable=0;points=[[0,0.5],[1,0.5]];portConstraint=eastwest;whiteSpace=wrap;html=1;" vertex="1" parent="P77QXIMF4UAiQioeEThP-1">
          <mxGeometry y="128" width="80" height="62" as="geometry" />
        </mxCell>
        <mxCell id="P77QXIMF4UAiQioeEThP-5" value="Author" style="swimlane;fontStyle=1;align=center;verticalAlign=top;childLayout=stackLayout;horizontal=1;startSize=26;horizontalStack=0;resizeParent=1;resizeParentMax=0;resizeLast=0;collapsible=1;marginBottom=0;whiteSpace=wrap;html=1;" vertex="1" parent="1">
          <mxGeometry x="-1540" y="680" width="110" height="170" as="geometry">
            <mxRectangle x="-1300" y="300" width="80" height="30" as="alternateBounds" />
          </mxGeometry>
        </mxCell>
        <mxCell id="P77QXIMF4UAiQioeEThP-6" value="&lt;b&gt;FIELDS:&lt;br&gt;&lt;/b&gt;+ Id&lt;br&gt;+ Name&lt;br&gt;+ ListOfBooks" style="text;strokeColor=none;fillColor=none;align=left;verticalAlign=top;spacingLeft=4;spacingRight=4;overflow=hidden;rotatable=0;points=[[0,0.5],[1,0.5]];portConstraint=eastwest;whiteSpace=wrap;html=1;" vertex="1" parent="P77QXIMF4UAiQioeEThP-5">
          <mxGeometry y="26" width="110" height="74" as="geometry" />
        </mxCell>
        <mxCell id="P77QXIMF4UAiQioeEThP-7" value="" style="line;strokeWidth=1;fillColor=none;align=left;verticalAlign=middle;spacingTop=-1;spacingLeft=3;spacingRight=3;rotatable=0;labelPosition=right;points=[];portConstraint=eastwest;strokeColor=inherit;" vertex="1" parent="P77QXIMF4UAiQioeEThP-5">
          <mxGeometry y="100" width="110" height="8" as="geometry" />
        </mxCell>
        <mxCell id="P77QXIMF4UAiQioeEThP-8" value="&lt;b&gt;METHODS:&lt;br&gt;&lt;/b&gt;+ getName&lt;br&gt;+ getListOfBooks()" style="text;strokeColor=none;fillColor=none;align=left;verticalAlign=top;spacingLeft=4;spacingRight=4;overflow=hidden;rotatable=0;points=[[0,0.5],[1,0.5]];portConstraint=eastwest;whiteSpace=wrap;html=1;" vertex="1" parent="P77QXIMF4UAiQioeEThP-5">
          <mxGeometry y="108" width="110" height="62" as="geometry" />
        </mxCell>
        <mxCell id="P77QXIMF4UAiQioeEThP-9" value="Publisher" style="swimlane;fontStyle=1;align=center;verticalAlign=top;childLayout=stackLayout;horizontal=1;startSize=26;horizontalStack=0;resizeParent=1;resizeParentMax=0;resizeLast=0;collapsible=1;marginBottom=0;whiteSpace=wrap;html=1;" vertex="1" parent="1">
          <mxGeometry x="-1350" y="680" width="110" height="170" as="geometry">
            <mxRectangle x="-1300" y="300" width="80" height="30" as="alternateBounds" />
          </mxGeometry>
        </mxCell>
        <mxCell id="P77QXIMF4UAiQioeEThP-10" value="&lt;b&gt;FIELDS:&lt;br&gt;&lt;/b&gt;+ Id&lt;br&gt;+ Name&lt;br&gt;+ ListOfBooks" style="text;strokeColor=none;fillColor=none;align=left;verticalAlign=top;spacingLeft=4;spacingRight=4;overflow=hidden;rotatable=0;points=[[0,0.5],[1,0.5]];portConstraint=eastwest;whiteSpace=wrap;html=1;" vertex="1" parent="P77QXIMF4UAiQioeEThP-9">
          <mxGeometry y="26" width="110" height="74" as="geometry" />
        </mxCell>
        <mxCell id="P77QXIMF4UAiQioeEThP-11" value="" style="line;strokeWidth=1;fillColor=none;align=left;verticalAlign=middle;spacingTop=-1;spacingLeft=3;spacingRight=3;rotatable=0;labelPosition=right;points=[];portConstraint=eastwest;strokeColor=inherit;" vertex="1" parent="P77QXIMF4UAiQioeEThP-9">
          <mxGeometry y="100" width="110" height="8" as="geometry" />
        </mxCell>
        <mxCell id="P77QXIMF4UAiQioeEThP-12" value="&lt;b&gt;METHODS:&lt;br&gt;&lt;/b&gt;+ getName&lt;br&gt;+ getListOfBooks()" style="text;strokeColor=none;fillColor=none;align=left;verticalAlign=top;spacingLeft=4;spacingRight=4;overflow=hidden;rotatable=0;points=[[0,0.5],[1,0.5]];portConstraint=eastwest;whiteSpace=wrap;html=1;" vertex="1" parent="P77QXIMF4UAiQioeEThP-9">
          <mxGeometry y="108" width="110" height="62" as="geometry" />
        </mxCell>
        <mxCell id="P77QXIMF4UAiQioeEThP-13" value="Genre" style="swimlane;fontStyle=1;align=center;verticalAlign=top;childLayout=stackLayout;horizontal=1;startSize=26;horizontalStack=0;resizeParent=1;resizeParentMax=0;resizeLast=0;collapsible=1;marginBottom=0;whiteSpace=wrap;html=1;" vertex="1" parent="1">
          <mxGeometry x="-1160" y="680" width="110" height="170" as="geometry">
            <mxRectangle x="-1300" y="300" width="80" height="30" as="alternateBounds" />
          </mxGeometry>
        </mxCell>
        <mxCell id="P77QXIMF4UAiQioeEThP-14" value="&lt;b&gt;FIELDS:&lt;br&gt;&lt;/b&gt;+ Name&lt;br&gt;+ ListOfBooks" style="text;strokeColor=none;fillColor=none;align=left;verticalAlign=top;spacingLeft=4;spacingRight=4;overflow=hidden;rotatable=0;points=[[0,0.5],[1,0.5]];portConstraint=eastwest;whiteSpace=wrap;html=1;" vertex="1" parent="P77QXIMF4UAiQioeEThP-13">
          <mxGeometry y="26" width="110" height="74" as="geometry" />
        </mxCell>
        <mxCell id="P77QXIMF4UAiQioeEThP-15" value="" style="line;strokeWidth=1;fillColor=none;align=left;verticalAlign=middle;spacingTop=-1;spacingLeft=3;spacingRight=3;rotatable=0;labelPosition=right;points=[];portConstraint=eastwest;strokeColor=inherit;" vertex="1" parent="P77QXIMF4UAiQioeEThP-13">
          <mxGeometry y="100" width="110" height="8" as="geometry" />
        </mxCell>
        <mxCell id="P77QXIMF4UAiQioeEThP-16" value="&lt;b&gt;METHODS:&lt;br&gt;&lt;/b&gt;+ getName&lt;br&gt;+ getListOfBooks()" style="text;strokeColor=none;fillColor=none;align=left;verticalAlign=top;spacingLeft=4;spacingRight=4;overflow=hidden;rotatable=0;points=[[0,0.5],[1,0.5]];portConstraint=eastwest;whiteSpace=wrap;html=1;" vertex="1" parent="P77QXIMF4UAiQioeEThP-13">
          <mxGeometry y="108" width="110" height="62" as="geometry" />
        </mxCell>
      </root>
    </mxGraphModel>
  </diagram>
</mxfile>
